<svg width="110" height="88" viewBox="0 0 110 88" fill="none" xmlns="http://www.w3.org/2000/svg">
<path d="M107.618 16.5859L74.4219 0C70.9949 4.77812 63.4076 8.1125 54.5587 8.1125C45.7097 8.1125 38.1225 4.77812 34.6954 0L1.49909 16.5859C0.152139 17.2734 -0.393461 18.9234 0.271489 20.2812L10.0241 39.9609C10.7061 41.3187 12.3429 41.8687 13.6898 41.1984L23.3401 36.4375C25.1474 35.5438 27.2616 36.8672 27.2616 38.9125V82.5C27.2616 85.5422 29.6998 88 32.7176 88H76.3656C79.3835 88 81.8216 85.5422 81.8216 82.5V38.8953C81.8216 36.8672 83.9358 35.5266 85.7431 36.4203L95.3934 41.1813C96.7404 41.8688 98.3772 41.3187 99.0592 39.9437L108.829 20.2812C109.511 18.9234 108.965 17.2563 107.618 16.5859Z" fill="#764400"/>
</svg>
